<svg xmlns="http://www.w3.org/2000/svg" xmlns:xlink="http://www.w3.org/1999/xlink" width="100" zoomAndPan="magnify" viewBox="0 0 75 37.5" height="50" preserveAspectRatio="xMidYMid meet" version="1.0"><defs><g/><clipPath id="4ebddf7e32"><path d="M 0.492188 21 L 9 21 L 9 34 L 0.492188 34 Z M 0.492188 21 " clip-rule="nonzero"/></clipPath><clipPath id="3487541a24"><path d="M 16 21 L 24.285156 21 L 24.285156 34 L 16 34 Z M 16 21 " clip-rule="nonzero"/></clipPath><clipPath id="06249b71b0"><path d="M 15 21 L 24.285156 21 L 24.285156 34 L 15 34 Z M 15 21 " clip-rule="nonzero"/></clipPath><clipPath id="b0b57d82b2"><path d="M 8 18.503906 L 17 18.503906 L 17 36.628906 L 8 36.628906 Z M 8 18.503906 " clip-rule="nonzero"/></clipPath></defs><g clip-path="url(#4ebddf7e32)"><path fill="#0085ff" d="M 8 33.28125 C 7.867188 33.28125 7.738281 33.238281 7.632812 33.160156 L 0.980469 28.019531 C 0.835938 27.910156 0.753906 27.746094 0.753906 27.566406 C 0.753906 27.386719 0.835938 27.222656 0.976562 27.113281 L 7.632812 21.976562 C 7.738281 21.894531 7.867188 21.851562 8 21.851562 C 8.179688 21.851562 8.351562 21.929688 8.460938 22.070312 C 8.558594 22.191406 8.601562 22.34375 8.582031 22.496094 C 8.566406 22.652344 8.484375 22.789062 8.363281 22.882812 L 2.296875 27.566406 L 8.363281 32.25 C 8.484375 32.34375 8.566406 32.484375 8.582031 32.636719 C 8.601562 32.789062 8.558594 32.941406 8.460938 33.0625 C 8.351562 33.203125 8.179688 33.28125 8 33.28125 " fill-opacity="1" fill-rule="nonzero"/><path fill="#0085ff" d="M 8 21.605469 C 7.8125 21.605469 7.625 21.667969 7.480469 21.78125 L 0.824219 26.917969 C 0.617188 27.078125 0.503906 27.3125 0.503906 27.566406 C 0.503906 27.820312 0.621094 28.058594 0.824219 28.214844 L 7.480469 33.351562 C 7.625 33.464844 7.8125 33.527344 8 33.527344 C 8.257812 33.527344 8.5 33.414062 8.660156 33.214844 C 8.796875 33.042969 8.859375 32.824219 8.832031 32.605469 C 8.804688 32.386719 8.695312 32.191406 8.519531 32.054688 L 2.703125 27.566406 L 8.519531 23.078125 C 8.695312 22.941406 8.804688 22.746094 8.832031 22.527344 C 8.859375 22.308594 8.796875 22.09375 8.660156 21.917969 C 8.5 21.71875 8.257812 21.605469 8 21.605469 Z M 8 22.097656 C 8.097656 22.097656 8.199219 22.140625 8.265625 22.222656 C 8.382812 22.367188 8.355469 22.578125 8.207031 22.691406 L 1.890625 27.566406 L 8.207031 32.441406 C 8.355469 32.554688 8.382812 32.765625 8.265625 32.910156 C 8.199219 32.992188 8.097656 33.035156 8 33.035156 C 7.925781 33.035156 7.851562 33.011719 7.789062 32.964844 L 1.132812 27.828125 C 1.050781 27.765625 1.003906 27.667969 1.003906 27.566406 C 1.003906 27.464844 1.050781 27.367188 1.132812 27.304688 L 7.789062 22.167969 C 7.851562 22.121094 7.925781 22.097656 8 22.097656 " fill-opacity="1" fill-rule="nonzero"/></g><g clip-path="url(#3487541a24)"><path fill="#0085ff" d="M 16.78125 33.28125 C 16.597656 33.28125 16.429688 33.203125 16.316406 33.0625 C 16.113281 32.8125 16.160156 32.445312 16.414062 32.25 L 22.480469 27.566406 L 16.414062 22.882812 C 16.160156 22.6875 16.113281 22.320312 16.316406 22.070312 C 16.429688 21.929688 16.597656 21.851562 16.78125 21.851562 C 16.910156 21.851562 17.039062 21.894531 17.144531 21.976562 L 23.800781 27.113281 C 23.941406 27.222656 24.023438 27.386719 24.023438 27.566406 C 24.023438 27.746094 23.941406 27.910156 23.800781 28.019531 L 17.144531 33.160156 C 17.039062 33.238281 16.910156 33.28125 16.78125 33.28125 " fill-opacity="1" fill-rule="nonzero"/></g><g clip-path="url(#06249b71b0)"><path fill="#0085ff" d="M 16.78125 21.605469 C 16.519531 21.605469 16.28125 21.71875 16.117188 21.917969 C 15.832031 22.277344 15.894531 22.796875 16.257812 23.078125 L 22.074219 27.566406 L 16.257812 32.054688 C 15.894531 32.335938 15.832031 32.855469 16.117188 33.214844 C 16.28125 33.414062 16.519531 33.527344 16.78125 33.527344 C 16.96875 33.527344 17.152344 33.464844 17.300781 33.351562 L 23.953125 28.214844 C 24.160156 28.058594 24.273438 27.820312 24.273438 27.566406 C 24.273438 27.3125 24.160156 27.078125 23.957031 26.917969 L 17.300781 21.78125 C 17.152344 21.667969 16.96875 21.605469 16.78125 21.605469 Z M 16.78125 22.097656 C 16.851562 22.097656 16.925781 22.121094 16.988281 22.167969 L 23.644531 27.304688 C 23.726562 27.367188 23.773438 27.464844 23.773438 27.566406 C 23.773438 27.667969 23.726562 27.765625 23.644531 27.828125 L 16.988281 32.964844 C 16.925781 33.011719 16.851562 33.035156 16.78125 33.035156 C 16.679688 33.035156 16.578125 32.992188 16.515625 32.910156 C 16.398438 32.765625 16.421875 32.554688 16.570312 32.441406 L 22.886719 27.566406 L 16.570312 22.691406 C 16.421875 22.578125 16.398438 22.367188 16.515625 22.222656 C 16.578125 22.140625 16.679688 22.097656 16.78125 22.097656 " fill-opacity="1" fill-rule="nonzero"/></g><g clip-path="url(#b0b57d82b2)"><path fill="#0085ff" d="M 9.082031 36.382812 C 9.007812 36.382812 8.9375 36.367188 8.867188 36.34375 C 8.722656 36.289062 8.605469 36.179688 8.542969 36.039062 C 8.476562 35.894531 8.476562 35.738281 8.53125 35.59375 L 15.03125 19.121094 C 15.117188 18.898438 15.339844 18.75 15.582031 18.75 C 15.652344 18.75 15.726562 18.765625 15.792969 18.789062 C 16.097656 18.90625 16.25 19.242188 16.132812 19.539062 L 9.632812 36.011719 C 9.542969 36.234375 9.324219 36.382812 9.082031 36.382812 " fill-opacity="1" fill-rule="nonzero"/><path fill="#0085ff" d="M 15.582031 18.503906 C 15.238281 18.503906 14.921875 18.71875 14.796875 19.03125 L 8.296875 35.507812 C 8.21875 35.710938 8.222656 35.933594 8.3125 36.136719 C 8.402344 36.339844 8.570312 36.492188 8.777344 36.574219 C 8.875 36.609375 8.976562 36.628906 9.082031 36.628906 C 9.425781 36.628906 9.742188 36.417969 9.867188 36.101562 L 16.363281 19.628906 C 16.53125 19.203125 16.316406 18.722656 15.882812 18.558594 C 15.789062 18.523438 15.683594 18.503906 15.582031 18.503906 Z M 15.582031 18.996094 C 15.621094 18.996094 15.664062 19.003906 15.703125 19.019531 C 15.878906 19.085938 15.964844 19.277344 15.898438 19.449219 L 9.398438 35.921875 C 9.347656 36.054688 9.21875 36.136719 9.082031 36.136719 C 9.039062 36.136719 9 36.128906 8.960938 36.113281 C 8.785156 36.046875 8.699219 35.855469 8.765625 35.683594 L 15.265625 19.210938 C 15.316406 19.078125 15.445312 18.996094 15.582031 18.996094 " fill-opacity="1" fill-rule="nonzero"/></g><g fill="#0085ff" fill-opacity="1"><g transform="translate(29.089018, 27.832542)"><g/></g></g><g fill="#0085ff" fill-opacity="1"><g transform="translate(31.031426, 27.832542)"><g><path d="M 2.40625 -6.46875 L 4.0625 -2.0625 L 4.078125 -2.0625 L 5.75 -6.46875 L 7.671875 -6.46875 L 7.671875 -5.671875 L 7.34375 -5.640625 C 7.15625 -5.628906 7.0625 -5.519531 7.0625 -5.3125 L 7.3125 -0.859375 L 7.90625 -0.828125 L 7.90625 0 L 5.5625 0 L 5.5625 -0.78125 L 5.921875 -0.8125 C 6.097656 -0.820312 6.179688 -0.90625 6.171875 -1.0625 L 5.984375 -4.5 L 5.96875 -4.5 L 4.46875 -0.625 L 3.546875 -0.625 L 2.0625 -4.453125 L 2.046875 -4.453125 L 1.859375 -0.859375 L 2.484375 -0.828125 L 2.484375 0 L 0.1875 0 L 0.1875 -0.78125 L 0.546875 -0.8125 C 0.691406 -0.820312 0.769531 -0.910156 0.78125 -1.078125 L 1.046875 -5.59375 L 0.453125 -5.640625 L 0.453125 -6.46875 Z M 2.40625 -6.46875 "/></g></g></g><g fill="#0085ff" fill-opacity="1"><g transform="translate(39.137094, 27.832542)"><g><path d="M 4.953125 0 L 0.328125 0 L 0.328125 -0.78125 L 0.65625 -0.8125 C 0.84375 -0.832031 0.9375 -0.925781 0.9375 -1.09375 L 0.9375 -5.609375 L 0.375 -5.640625 L 0.375 -6.46875 L 4.828125 -6.46875 L 4.828125 -4.84375 L 3.84375 -4.78125 L 3.84375 -5.171875 C 3.84375 -5.273438 3.820312 -5.347656 3.78125 -5.390625 C 3.75 -5.441406 3.675781 -5.46875 3.5625 -5.46875 L 2.125 -5.46875 L 2.125 -3.8125 L 4.359375 -3.8125 L 4.359375 -2.8125 L 2.125 -2.8125 L 2.125 -1 L 3.6875 -1 C 3.800781 -1 3.875 -1.019531 3.90625 -1.0625 C 3.9375 -1.113281 3.953125 -1.195312 3.953125 -1.3125 L 3.953125 -1.796875 L 4.953125 -1.734375 Z M 4.953125 0 "/></g></g></g><g fill="#0085ff" fill-opacity="1"><g transform="translate(44.472838, 27.832542)"><g><path d="M 0.3125 0 L 0.3125 -0.78125 L 0.65625 -0.8125 C 0.820312 -0.820312 0.90625 -0.914062 0.90625 -1.09375 L 0.90625 -5.609375 L 0.359375 -5.640625 L 0.359375 -6.46875 L 2.109375 -6.46875 L 4.859375 -2 L 4.875 -2 L 4.875 -5.609375 L 4.234375 -5.640625 L 4.234375 -6.46875 L 6.609375 -6.46875 L 6.609375 -5.671875 L 6.265625 -5.640625 C 6.109375 -5.628906 6.03125 -5.53125 6.03125 -5.34375 L 6.03125 0 L 4.890625 0 L 2.078125 -4.53125 L 2.0625 -4.53125 L 2.0625 -0.859375 L 2.6875 -0.828125 L 2.6875 0 Z M 0.3125 0 "/></g></g></g><g fill="#0085ff" fill-opacity="1"><g transform="translate(51.324751, 27.832542)"><g><path d="M 4.953125 0 L 0.328125 0 L 0.328125 -0.78125 L 0.65625 -0.8125 C 0.84375 -0.832031 0.9375 -0.925781 0.9375 -1.09375 L 0.9375 -5.609375 L 0.375 -5.640625 L 0.375 -6.46875 L 4.828125 -6.46875 L 4.828125 -4.84375 L 3.84375 -4.78125 L 3.84375 -5.171875 C 3.84375 -5.273438 3.820312 -5.347656 3.78125 -5.390625 C 3.75 -5.441406 3.675781 -5.46875 3.5625 -5.46875 L 2.125 -5.46875 L 2.125 -3.8125 L 4.359375 -3.8125 L 4.359375 -2.8125 L 2.125 -2.8125 L 2.125 -1 L 3.6875 -1 C 3.800781 -1 3.875 -1.019531 3.90625 -1.0625 C 3.9375 -1.113281 3.953125 -1.195312 3.953125 -1.3125 L 3.953125 -1.796875 L 4.953125 -1.734375 Z M 4.953125 0 "/></g></g></g><g fill="#0085ff" fill-opacity="1"><g transform="translate(56.660496, 27.832542)"><g><path d="M 4.640625 -5.671875 L 1.671875 -0.921875 L 3.5625 -0.921875 C 3.71875 -0.921875 3.796875 -1.023438 3.796875 -1.234375 L 3.796875 -1.921875 L 4.796875 -1.84375 L 4.796875 0 L 0.328125 0 L 0.328125 -0.8125 L 3.25 -5.546875 L 1.640625 -5.546875 C 1.460938 -5.546875 1.375 -5.441406 1.375 -5.234375 L 1.375 -4.84375 L 0.390625 -4.921875 L 0.390625 -6.46875 L 4.640625 -6.46875 Z M 4.640625 -5.671875 "/></g></g></g><g fill="#0085ff" fill-opacity="1"><g transform="translate(61.840737, 27.832542)"><g><path d="M 4.953125 0 L 0.328125 0 L 0.328125 -0.78125 L 0.65625 -0.8125 C 0.84375 -0.832031 0.9375 -0.925781 0.9375 -1.09375 L 0.9375 -5.609375 L 0.375 -5.640625 L 0.375 -6.46875 L 4.828125 -6.46875 L 4.828125 -4.84375 L 3.84375 -4.78125 L 3.84375 -5.171875 C 3.84375 -5.273438 3.820312 -5.347656 3.78125 -5.390625 C 3.75 -5.441406 3.675781 -5.46875 3.5625 -5.46875 L 2.125 -5.46875 L 2.125 -3.8125 L 4.359375 -3.8125 L 4.359375 -2.8125 L 2.125 -2.8125 L 2.125 -1 L 3.6875 -1 C 3.800781 -1 3.875 -1.019531 3.90625 -1.0625 C 3.9375 -1.113281 3.953125 -1.195312 3.953125 -1.3125 L 3.953125 -1.796875 L 4.953125 -1.734375 Z M 4.953125 0 "/></g></g></g><g fill="#0085ff" fill-opacity="1"><g transform="translate(67.176482, 27.832542)"><g><path d="M 2.34375 -0.875 C 3.125 -0.875 3.515625 -1.1875 3.515625 -1.8125 C 3.515625 -2.132812 3.34375 -2.375 3 -2.53125 C 2.8125 -2.613281 2.570312 -2.691406 2.28125 -2.765625 C 2 -2.847656 1.757812 -2.929688 1.5625 -3.015625 C 1.375 -3.097656 1.179688 -3.210938 0.984375 -3.359375 C 0.609375 -3.640625 0.421875 -4.078125 0.421875 -4.671875 C 0.421875 -5.265625 0.625 -5.726562 1.03125 -6.0625 C 1.445312 -6.40625 1.984375 -6.578125 2.640625 -6.578125 C 3.304688 -6.578125 3.925781 -6.445312 4.5 -6.1875 L 4.5 -4.71875 L 3.515625 -4.65625 L 3.515625 -5.21875 C 3.515625 -5.3125 3.5 -5.382812 3.46875 -5.4375 C 3.394531 -5.5625 3.164062 -5.625 2.78125 -5.625 C 2.394531 -5.625 2.109375 -5.550781 1.921875 -5.40625 C 1.742188 -5.269531 1.65625 -5.0625 1.65625 -4.78125 C 1.65625 -4.570312 1.734375 -4.390625 1.890625 -4.234375 C 1.992188 -4.128906 2.144531 -4.039062 2.34375 -3.96875 C 2.550781 -3.90625 2.769531 -3.835938 3 -3.765625 C 3.226562 -3.691406 3.429688 -3.613281 3.609375 -3.53125 C 3.785156 -3.445312 3.972656 -3.332031 4.171875 -3.1875 C 4.566406 -2.894531 4.765625 -2.441406 4.765625 -1.828125 C 4.765625 -1.222656 4.546875 -0.742188 4.109375 -0.390625 C 3.671875 -0.046875 3.09375 0.125 2.375 0.125 C 1.65625 0.125 1.015625 -0.00390625 0.453125 -0.265625 L 0.453125 -1.8125 L 1.4375 -1.875 L 1.4375 -1.28125 C 1.4375 -1.1875 1.445312 -1.113281 1.46875 -1.0625 C 1.5 -1.019531 1.582031 -0.976562 1.71875 -0.9375 C 1.851562 -0.894531 2.0625 -0.875 2.34375 -0.875 Z M 2.34375 -0.875 "/></g></g></g><g fill="#0085ff" fill-opacity="1"><g transform="translate(32.129558, 32.634081)"><g><path d="M 4.421875 -2.9375 L 4.265625 -2.921875 C 4.171875 -2.910156 4.113281 -2.847656 4.09375 -2.734375 L 3.46875 0 L 2.765625 0 L 2.25 -2.234375 L 2.234375 -2.234375 L 1.71875 0 L 1 0 L 0.3125 -2.90625 L 0.03125 -2.921875 L 0.03125 -3.34375 L 1.265625 -3.34375 L 1.265625 -2.9375 L 1.109375 -2.921875 C 1.003906 -2.910156 0.953125 -2.867188 0.953125 -2.796875 C 0.953125 -2.773438 0.953125 -2.757812 0.953125 -2.75 L 1.390625 -0.8125 L 1.40625 -0.8125 L 1.9375 -3.078125 L 2.59375 -3.078125 L 3.125 -0.796875 L 3.140625 -0.796875 L 3.5625 -2.890625 L 3.296875 -2.921875 L 3.296875 -3.34375 L 4.421875 -3.34375 Z M 4.421875 -2.9375 "/></g></g></g><g fill="#0085ff" fill-opacity="1"><g transform="translate(36.583091, 32.634081)"><g><path d="M 2.5625 0 L 0.171875 0 L 0.171875 -0.40625 L 0.34375 -0.421875 C 0.4375 -0.429688 0.484375 -0.476562 0.484375 -0.5625 L 0.484375 -2.90625 L 0.203125 -2.921875 L 0.203125 -3.34375 L 2.5 -3.34375 L 2.5 -2.515625 L 1.984375 -2.46875 L 1.984375 -2.671875 C 1.984375 -2.734375 1.972656 -2.773438 1.953125 -2.796875 C 1.941406 -2.816406 1.90625 -2.828125 1.84375 -2.828125 L 1.09375 -2.828125 L 1.09375 -1.96875 L 2.265625 -1.96875 L 2.265625 -1.453125 L 1.09375 -1.453125 L 1.09375 -0.515625 L 1.90625 -0.515625 C 1.96875 -0.515625 2.003906 -0.523438 2.015625 -0.546875 C 2.035156 -0.578125 2.046875 -0.617188 2.046875 -0.671875 L 2.046875 -0.9375 L 2.5625 -0.890625 Z M 2.5625 0 "/></g></g></g><g fill="#0085ff" fill-opacity="1"><g transform="translate(39.345793, 32.634081)"><g><path d="M 0.203125 -3.34375 L 1.609375 -3.34375 C 2.335938 -3.34375 2.703125 -3.0625 2.703125 -2.5 C 2.703125 -2.195312 2.546875 -1.960938 2.234375 -1.796875 C 2.429688 -1.742188 2.585938 -1.648438 2.703125 -1.515625 C 2.816406 -1.390625 2.875 -1.21875 2.875 -1 C 2.875 -0.675781 2.765625 -0.425781 2.546875 -0.25 C 2.328125 -0.0820312 2.003906 0 1.578125 0 L 0.171875 0 L 0.171875 -0.40625 L 0.34375 -0.421875 C 0.4375 -0.429688 0.484375 -0.476562 0.484375 -0.5625 L 0.484375 -2.90625 L 0.203125 -2.921875 Z M 1.09375 -1.53125 L 1.09375 -0.46875 L 1.5625 -0.46875 C 2 -0.46875 2.21875 -0.644531 2.21875 -1 C 2.21875 -1.175781 2.160156 -1.304688 2.046875 -1.390625 C 1.941406 -1.484375 1.789062 -1.53125 1.59375 -1.53125 Z M 1.09375 -2.890625 L 1.09375 -1.96875 L 1.46875 -1.96875 C 1.675781 -1.96875 1.828125 -2.007812 1.921875 -2.09375 C 2.023438 -2.1875 2.078125 -2.304688 2.078125 -2.453125 C 2.078125 -2.609375 2.023438 -2.71875 1.921875 -2.78125 C 1.828125 -2.851562 1.6875 -2.890625 1.5 -2.890625 Z M 1.09375 -2.890625 "/></g></g></g><g fill="#0085ff" fill-opacity="1"><g transform="translate(42.375202, 32.634081)"><g/></g></g><g fill="#0085ff" fill-opacity="1"><g transform="translate(43.381651, 32.634081)"><g><path d="M 1.21875 -0.453125 C 1.613281 -0.453125 1.8125 -0.613281 1.8125 -0.9375 C 1.8125 -1.101562 1.722656 -1.226562 1.546875 -1.3125 C 1.453125 -1.351562 1.332031 -1.394531 1.1875 -1.4375 C 1.039062 -1.476562 0.914062 -1.519531 0.8125 -1.5625 C 0.71875 -1.601562 0.617188 -1.660156 0.515625 -1.734375 C 0.316406 -1.878906 0.21875 -2.101562 0.21875 -2.40625 C 0.21875 -2.71875 0.320312 -2.960938 0.53125 -3.140625 C 0.75 -3.316406 1.03125 -3.40625 1.375 -3.40625 C 1.71875 -3.40625 2.035156 -3.335938 2.328125 -3.203125 L 2.328125 -2.4375 L 1.8125 -2.40625 L 1.8125 -2.703125 C 1.8125 -2.753906 1.804688 -2.789062 1.796875 -2.8125 C 1.753906 -2.875 1.632812 -2.90625 1.4375 -2.90625 C 1.238281 -2.90625 1.09375 -2.867188 1 -2.796875 C 0.90625 -2.734375 0.859375 -2.625 0.859375 -2.46875 C 0.859375 -2.363281 0.894531 -2.269531 0.96875 -2.1875 C 1.03125 -2.132812 1.113281 -2.085938 1.21875 -2.046875 C 1.320312 -2.015625 1.429688 -1.976562 1.546875 -1.9375 C 1.671875 -1.90625 1.773438 -1.867188 1.859375 -1.828125 C 1.953125 -1.785156 2.050781 -1.726562 2.15625 -1.65625 C 2.363281 -1.5 2.46875 -1.265625 2.46875 -0.953125 C 2.46875 -0.640625 2.351562 -0.390625 2.125 -0.203125 C 1.894531 -0.0234375 1.59375 0.0625 1.21875 0.0625 C 0.851562 0.0625 0.523438 -0.00390625 0.234375 -0.140625 L 0.234375 -0.9375 L 0.75 -0.96875 L 0.75 -0.671875 C 0.75 -0.617188 0.753906 -0.578125 0.765625 -0.546875 C 0.773438 -0.523438 0.8125 -0.503906 0.875 -0.484375 C 0.945312 -0.460938 1.0625 -0.453125 1.21875 -0.453125 Z M 1.21875 -0.453125 "/></g></g></g><g fill="#0085ff" fill-opacity="1"><g transform="translate(46.008482, 32.634081)"><g><path d="M 1.734375 -3.40625 C 2.128906 -3.40625 2.460938 -3.265625 2.734375 -2.984375 C 3.003906 -2.703125 3.140625 -2.269531 3.140625 -1.6875 C 3.140625 -1.113281 3.003906 -0.675781 2.734375 -0.375 C 2.472656 -0.0820312 2.113281 0.0625 1.65625 0.0625 C 1.195312 0.0625 0.835938 -0.0820312 0.578125 -0.375 C 0.328125 -0.664062 0.203125 -1.097656 0.203125 -1.671875 C 0.203125 -1.972656 0.242188 -2.238281 0.328125 -2.46875 C 0.421875 -2.707031 0.539062 -2.890625 0.6875 -3.015625 C 0.988281 -3.273438 1.335938 -3.40625 1.734375 -3.40625 Z M 0.828125 -1.6875 C 0.828125 -0.851562 1.117188 -0.4375 1.703125 -0.4375 C 2.003906 -0.4375 2.21875 -0.566406 2.34375 -0.828125 C 2.457031 -1.046875 2.515625 -1.320312 2.515625 -1.65625 C 2.515625 -1.945312 2.460938 -2.210938 2.359375 -2.453125 C 2.304688 -2.585938 2.222656 -2.691406 2.109375 -2.765625 C 1.992188 -2.847656 1.84375 -2.890625 1.65625 -2.890625 C 1.46875 -2.890625 1.304688 -2.828125 1.171875 -2.703125 C 1.046875 -2.585938 0.957031 -2.441406 0.90625 -2.265625 C 0.851562 -2.097656 0.828125 -1.90625 0.828125 -1.6875 Z M 0.828125 -1.6875 "/></g></g></g><g fill="#0085ff" fill-opacity="1"><g transform="translate(49.34989, 32.634081)"><g><path d="M 2.546875 0 L 0.15625 0 L 0.15625 -0.40625 L 0.328125 -0.421875 C 0.421875 -0.429688 0.46875 -0.476562 0.46875 -0.5625 L 0.46875 -2.90625 L 0.1875 -2.921875 L 0.1875 -3.34375 L 1.40625 -3.34375 L 1.40625 -2.9375 L 1.234375 -2.921875 C 1.140625 -2.910156 1.09375 -2.859375 1.09375 -2.765625 L 1.09375 -0.515625 L 1.921875 -0.515625 C 1.972656 -0.515625 2.003906 -0.523438 2.015625 -0.546875 C 2.023438 -0.578125 2.03125 -0.617188 2.03125 -0.671875 L 2.03125 -1.03125 L 2.546875 -1 Z M 2.546875 0 "/></g></g></g><g fill="#0085ff" fill-opacity="1"><g transform="translate(52.052203, 32.634081)"><g><path d="M 1.015625 -2.75 L 1.015625 -1.09375 C 1.015625 -0.851562 1.066406 -0.6875 1.171875 -0.59375 C 1.285156 -0.5 1.445312 -0.453125 1.65625 -0.453125 C 1.875 -0.453125 2.039062 -0.503906 2.15625 -0.609375 C 2.269531 -0.710938 2.328125 -0.863281 2.328125 -1.0625 L 2.328125 -2.90625 L 2.03125 -2.921875 L 2.03125 -3.34375 L 3.21875 -3.34375 L 3.21875 -2.9375 L 3.0625 -2.921875 C 2.957031 -2.910156 2.90625 -2.859375 2.90625 -2.765625 L 2.90625 -0.96875 C 2.90625 -0.644531 2.789062 -0.390625 2.5625 -0.203125 C 2.34375 -0.0234375 2.03125 0.0625 1.625 0.0625 C 1.21875 0.0625 0.910156 -0.0234375 0.703125 -0.203125 C 0.503906 -0.378906 0.40625 -0.664062 0.40625 -1.0625 L 0.40625 -2.90625 L 0.109375 -2.921875 L 0.109375 -3.34375 L 1.328125 -3.34375 L 1.328125 -2.9375 L 1.15625 -2.921875 C 1.101562 -2.910156 1.066406 -2.894531 1.046875 -2.875 C 1.023438 -2.851562 1.015625 -2.8125 1.015625 -2.75 Z M 1.015625 -2.75 "/></g></g></g><g fill="#0085ff" fill-opacity="1"><g transform="translate(55.368449, 32.634081)"><g><path d="M 1.09375 -0.5625 L 1.09375 -2.84375 L 0.703125 -2.84375 C 0.628906 -2.84375 0.59375 -2.789062 0.59375 -2.6875 L 0.59375 -2.453125 L 0.078125 -2.484375 L 0.078125 -3.34375 L 2.703125 -3.34375 L 2.703125 -2.484375 L 2.1875 -2.453125 L 2.1875 -2.6875 C 2.1875 -2.75 2.175781 -2.789062 2.15625 -2.8125 C 2.144531 -2.832031 2.109375 -2.84375 2.046875 -2.84375 L 1.703125 -2.84375 L 1.703125 -0.4375 L 2.109375 -0.421875 L 2.109375 0 L 0.6875 0 L 0.6875 -0.40625 L 0.953125 -0.421875 C 1.046875 -0.429688 1.09375 -0.476562 1.09375 -0.5625 Z M 1.09375 -0.5625 "/></g></g></g><g fill="#0085ff" fill-opacity="1"><g transform="translate(58.15128, 32.634081)"><g><path d="M 0.46875 -0.59375 L 0.46875 -2.90625 L 0.1875 -2.921875 L 0.1875 -3.34375 L 1.40625 -3.34375 L 1.40625 -2.9375 L 1.234375 -2.921875 C 1.140625 -2.910156 1.09375 -2.859375 1.09375 -2.765625 L 1.09375 -0.4375 L 1.375 -0.421875 L 1.375 0 L 0.15625 0 L 0.15625 -0.40625 L 0.328125 -0.421875 C 0.378906 -0.429688 0.414062 -0.445312 0.4375 -0.46875 C 0.457031 -0.488281 0.46875 -0.53125 0.46875 -0.59375 Z M 0.46875 -0.59375 "/></g></g></g><g fill="#0085ff" fill-opacity="1"><g transform="translate(59.696177, 32.634081)"><g><path d="M 1.734375 -3.40625 C 2.128906 -3.40625 2.460938 -3.265625 2.734375 -2.984375 C 3.003906 -2.703125 3.140625 -2.269531 3.140625 -1.6875 C 3.140625 -1.113281 3.003906 -0.675781 2.734375 -0.375 C 2.472656 -0.0820312 2.113281 0.0625 1.65625 0.0625 C 1.195312 0.0625 0.835938 -0.0820312 0.578125 -0.375 C 0.328125 -0.664062 0.203125 -1.097656 0.203125 -1.671875 C 0.203125 -1.972656 0.242188 -2.238281 0.328125 -2.46875 C 0.421875 -2.707031 0.539062 -2.890625 0.6875 -3.015625 C 0.988281 -3.273438 1.335938 -3.40625 1.734375 -3.40625 Z M 0.828125 -1.6875 C 0.828125 -0.851562 1.117188 -0.4375 1.703125 -0.4375 C 2.003906 -0.4375 2.21875 -0.566406 2.34375 -0.828125 C 2.457031 -1.046875 2.515625 -1.320312 2.515625 -1.65625 C 2.515625 -1.945312 2.460938 -2.210938 2.359375 -2.453125 C 2.304688 -2.585938 2.222656 -2.691406 2.109375 -2.765625 C 1.992188 -2.847656 1.84375 -2.890625 1.65625 -2.890625 C 1.46875 -2.890625 1.304688 -2.828125 1.171875 -2.703125 C 1.046875 -2.585938 0.957031 -2.441406 0.90625 -2.265625 C 0.851562 -2.097656 0.828125 -1.90625 0.828125 -1.6875 Z M 0.828125 -1.6875 "/></g></g></g><g fill="#0085ff" fill-opacity="1"><g transform="translate(63.037584, 32.634081)"><g><path d="M 0.15625 0 L 0.15625 -0.40625 L 0.34375 -0.421875 C 0.425781 -0.429688 0.46875 -0.476562 0.46875 -0.5625 L 0.46875 -2.90625 L 0.1875 -2.921875 L 0.1875 -3.34375 L 1.09375 -3.34375 L 2.515625 -1.03125 L 2.53125 -1.03125 L 2.53125 -2.90625 L 2.1875 -2.921875 L 2.1875 -3.34375 L 3.421875 -3.34375 L 3.421875 -2.9375 L 3.234375 -2.921875 C 3.160156 -2.910156 3.125 -2.859375 3.125 -2.765625 L 3.125 0 L 2.53125 0 L 1.078125 -2.34375 L 1.0625 -2.34375 L 1.0625 -0.4375 L 1.390625 -0.421875 L 1.390625 0 Z M 0.15625 0 "/></g></g></g><g fill="#0085ff" fill-opacity="1"><g transform="translate(66.585315, 32.634081)"><g><path d="M 1.21875 -0.453125 C 1.613281 -0.453125 1.8125 -0.613281 1.8125 -0.9375 C 1.8125 -1.101562 1.722656 -1.226562 1.546875 -1.3125 C 1.453125 -1.351562 1.332031 -1.394531 1.1875 -1.4375 C 1.039062 -1.476562 0.914062 -1.519531 0.8125 -1.5625 C 0.71875 -1.601562 0.617188 -1.660156 0.515625 -1.734375 C 0.316406 -1.878906 0.21875 -2.101562 0.21875 -2.40625 C 0.21875 -2.71875 0.320312 -2.960938 0.53125 -3.140625 C 0.75 -3.316406 1.03125 -3.40625 1.375 -3.40625 C 1.71875 -3.40625 2.035156 -3.335938 2.328125 -3.203125 L 2.328125 -2.4375 L 1.8125 -2.40625 L 1.8125 -2.703125 C 1.8125 -2.753906 1.804688 -2.789062 1.796875 -2.8125 C 1.753906 -2.875 1.632812 -2.90625 1.4375 -2.90625 C 1.238281 -2.90625 1.09375 -2.867188 1 -2.796875 C 0.90625 -2.734375 0.859375 -2.625 0.859375 -2.46875 C 0.859375 -2.363281 0.894531 -2.269531 0.96875 -2.1875 C 1.03125 -2.132812 1.113281 -2.085938 1.21875 -2.046875 C 1.320312 -2.015625 1.429688 -1.976562 1.546875 -1.9375 C 1.671875 -1.90625 1.773438 -1.867188 1.859375 -1.828125 C 1.953125 -1.785156 2.050781 -1.726562 2.15625 -1.65625 C 2.363281 -1.5 2.46875 -1.265625 2.46875 -0.953125 C 2.46875 -0.640625 2.351562 -0.390625 2.125 -0.203125 C 1.894531 -0.0234375 1.59375 0.0625 1.21875 0.0625 C 0.851562 0.0625 0.523438 -0.00390625 0.234375 -0.140625 L 0.234375 -0.9375 L 0.75 -0.96875 L 0.75 -0.671875 C 0.75 -0.617188 0.753906 -0.578125 0.765625 -0.546875 C 0.773438 -0.523438 0.8125 -0.503906 0.875 -0.484375 C 0.945312 -0.460938 1.0625 -0.453125 1.21875 -0.453125 Z M 1.21875 -0.453125 "/></g></g></g></svg>